<?xml version="1.0" encoding="utf-8"?>
<!-- Generator: Adobe Illustrator 25.4.1, SVG Export Plug-In . SVG Version: 6.00 Build 0)  -->
<svg version="1.1" id="Layer_1" xmlns="http://www.w3.org/2000/svg" xmlns:xlink="http://www.w3.org/1999/xlink" x="0px" y="0px"
	 viewBox="0 0 800 190.65" style="enable-background:new 0 0 800 190.65;" xml:space="preserve">
<style type="text/css">
	.st0{fill:#7664EF;}
	.st1{fill:#FF7110;}
	.st2{fill:#11CD67;}
	.st3{fill:#C2417D;}
</style>
<g id="Layer_2_00000111157821727478949920000009151531875571531455_">
	<g id="Layer_1-2">
		<path class="st0" d="M95.32,0C42.67-0.01-0.02,42.66-0.03,95.31s42.66,95.34,95.31,95.35s95.34-42.66,95.35-95.31
			c0-0.01,0-0.02,0-0.03C190.63,42.68,147.96,0.01,95.32,0 M95.32,118.85c-13,0.01-23.53-10.52-23.54-23.52S82.3,71.8,95.3,71.79
			s23.53,10.52,23.54,23.52c0,0,0,0.01,0,0.01C118.84,108.31,108.31,118.84,95.32,118.85"/>
		<path class="st1" d="M704.68,0c-52.65-0.01-95.33,42.67-95.34,95.32c-0.01,52.65,42.67,95.33,95.32,95.34
			c52.65,0.01,95.33-42.67,95.34-95.32c0-0.01,0-0.01,0-0.02C800,42.68,757.32,0,704.68,0C704.68,0,704.68,0,704.68,0
			 M704.68,118.85c-13,0.01-23.53-10.52-23.54-23.52s10.52-23.53,23.52-23.54s23.53,10.52,23.54,23.52c0,0,0,0.01,0,0.01
			C728.2,108.31,717.67,118.84,704.68,118.85"/>
		<path class="st2" d="M298.67,118.92c-12.99,0-23.52-10.53-23.52-23.52c0-12.99,10.53-23.52,23.52-23.52
			c9.41,0,17.92,5.61,21.62,14.26h73.24c-5.07-52.4-51.66-90.78-104.07-85.71S198.69,52.1,203.76,104.5s51.66,90.78,104.07,85.71
			c45.39-4.39,81.32-40.32,85.71-85.71h-73.17C316.69,113.23,308.14,118.92,298.67,118.92"/>
		<polygon class="st3" points="510.76,4.25 510.76,84.11 492.37,84.11 492.37,4.25 406.98,4.25 406.98,186.4 492.37,186.4 
			492.37,106.66 510.76,106.66 510.76,186.4 596.14,186.4 596.14,4.25 		"/>
	</g>
</g>
</svg>
