<?xml version="1.0" encoding="utf-8"?>
<!-- Generator: Adobe Illustrator 25.4.1, SVG Export Plug-In . SVG Version: 6.00 Build 0)  -->
<svg version="1.1" id="Layer_1" xmlns="http://www.w3.org/2000/svg" xmlns:xlink="http://www.w3.org/1999/xlink" x="0px" y="0px"
	 viewBox="0 0 144.75 600" style="enable-background:new 0 0 144.75 600;" xml:space="preserve">
<style type="text/css">
	.st0{fill:#7664F0;}
</style>
<path class="st0" d="M72.39,455.25C32.41,455.24,0.01,487.64,0,527.61S32.39,599.99,72.37,600s72.38-32.39,72.39-72.37v-0.01
	C144.75,487.66,112.35,455.26,72.39,455.25 M72.39,545.48c-9.86,0.01-17.86-7.99-17.87-17.85c-0.01-9.86,7.99-17.86,17.85-17.87
	s17.86,7.99,17.87,17.85v0.01C90.24,537.49,82.25,545.47,72.39,545.48"/>
<path class="st0" d="M72.39,0C32.41-0.01,0.01,32.39,0,72.37s32.39,72.38,72.37,72.39s72.38-32.39,72.39-72.37v-0.01
	C144.75,32.41,112.35,0.01,72.39,0 M72.39,90.24c-9.86,0.01-17.86-7.99-17.87-17.85c-0.01-9.86,7.99-17.86,17.85-17.87
	c9.86-0.01,17.86,7.99,17.87,17.85v0.01C90.24,82.24,82.25,90.23,72.39,90.24"/>
<path class="st0" d="M72.59,242.05c-9.86-0.01-17.85-8.01-17.84-17.88c0.01-9.86,8.01-17.85,17.88-17.84
	c7.12,0.01,13.56,4.25,16.38,10.79h55.6c-3.85-39.78-39.23-68.92-79.01-65.06s-68.92,39.23-65.06,79.01s39.23,68.92,79.01,65.06
	c34.46-3.34,61.73-30.61,65.06-65.06h-55.6C86.24,237.7,79.77,242.03,72.59,242.05"/>
<polygon class="st0" points="79.37,305.56 79.37,367.36 65.41,367.36 65.41,305.56 0.58,305.56 0.58,446.19 65.41,446.19 
	65.41,384.48 79.37,384.48 79.37,446.19 144.2,446.19 144.2,305.56 "/>
</svg>
