<svg xmlns="http://www.w3.org/2000/svg" viewBox="0 0 150 109.32"><defs><style>.cls-1{fill-rule:evenodd;}</style></defs><g id="Layer_2" data-name="Layer 2"><g id="Layer_1-2" data-name="Layer 1"><path class="cls-1" d="M147.76,31.87h-14.6L123.84,10.5C118,2.52,113.84,0,106.92,0H43c-6.8,0-11.07,2.5-16.69,10.5L16.72,31.87H2.15c-2.13,0-6.23,11.87,9,12.27l-5,12.49c0,15.55.2,31.3.2,46.84a5.72,5.72,0,0,0,5.59,5.85H31.74a5.71,5.71,0,0,0,5.75-5.69V90.38h75v13a5.85,5.85,0,0,0,5.82,5.85h19.85a5.73,5.73,0,0,0,5.82-5.63v-.22c0-15.55.2-31.29.2-46.84l-5.25-12.5C154.16,43.74,150,31.87,147.76,31.87ZM34.41,17.47c2-3.5,4.48-6.8,8.55-7.2h64c4.27.4,6.62,3.7,8.75,7.2,3.7,7.5,6.62,14.57,9.72,21.19H24.69C27.82,32.07,30.72,25,34.41,17.47Zm.83,50.79H23.79a9.47,9.47,0,0,1-9.42-9.45A5.8,5.8,0,0,1,20.14,53h.05a14.48,14.48,0,0,1,6.5,1.5l16.9,8.37a9.18,9.18,0,0,1-8.35,5.42ZM133,65.48a9.49,9.49,0,0,1-6.67,2.78H115a9.19,9.19,0,0,1-8.35-5.4l16.89-8.37A14.43,14.43,0,0,1,130,53a5.85,5.85,0,0,1,5.85,5.82,9.46,9.46,0,0,1-2.88,6.7Z"/></g></g></svg>