<svg xmlns="http://www.w3.org/2000/svg" viewBox="0 0 150 127.57"><g id="Layer_2" data-name="Layer 2"><g id="Layer_1-2" data-name="Layer 1"><path d="M73.47,53.13,60,27.18a2.81,2.81,0,0,1,.7-3.4,2.84,2.84,0,0,1,3.43-.25l13.7,9,7.3-30.42a2.79,2.79,0,0,1,5.32-.4l8.17,20.35,9-10a2.84,2.84,0,0,1,4-.38,2.79,2.79,0,0,1,1,2.28V27l18.58-10.9A2.82,2.82,0,0,1,135,17.47a2.85,2.85,0,0,1,0,2.34L120,50l-5-2.5,10.77-21.73-14.69,8.63a2.86,2.86,0,0,1-2.83,0,2.79,2.79,0,0,1-1.4-2.5V21.28l-7.17,7.88a2.86,2.86,0,0,1-2.5.87,2.76,2.76,0,0,1-2.1-1.72L88.53,12l-6.18,25.8a2.83,2.83,0,0,1-3.42,2.07,2.79,2.79,0,0,1-.88-.39l-8-5.33,8.45,16.38Z"/><path d="M31.65,70.13H0V64.51H25L14.58,54.08A20.43,20.43,0,0,0,0,48.11V42.48a25.92,25.92,0,0,1,18.42,7.65l15.2,15.2a2.8,2.8,0,0,1,.05,4A2.75,2.75,0,0,1,31.65,70.13Z"/><path d="M54.2,127.53a21.15,21.15,0,1,1,21.15-21.25A21.14,21.14,0,0,1,54.2,127.53Zm0-36.7a15.55,15.55,0,1,0,15.53,15.58.62.62,0,0,0,0-.13A15.57,15.57,0,0,0,54.2,90.83Z"/><path d="M150,127.56h-.17a21.18,21.18,0,0,1-1.46-42.33c.48,0,1,0,1.46,0v5.6a15.55,15.55,0,1,0,0,31.1H150Z"/><rect y="109.61" width="36.85" height="5.63"/><path d="M94.3,115.23H72.05v-5.62H94.3a3.1,3.1,0,0,0,.56-6.18,5.23,5.23,0,0,0-.56,0H90.85a2.82,2.82,0,0,1-2.8-2.82V86.88a16,16,0,0,0-16-16H61.6a24.37,24.37,0,0,1-17.35-7.13l-21-21a23.59,23.59,0,0,0-16.75-7H0V30.18H6.5a29.07,29.07,0,0,1,20.72,8.6l21,21A18.74,18.74,0,0,0,61.6,65.33H72.1A21.6,21.6,0,0,1,93.67,86.91V97.83h.63a8.75,8.75,0,0,1,0,17.5Z"/><path d="M132.72,114.91c-16.65,0-26.6-11.63-26.6-22.85V77.41A18,18,0,0,1,120.2,59.76l28.42-4.63.9,5.53-28.24,4.62a12.36,12.36,0,0,0-9.53,12.13V92.06c0,10.8,10.65,17.25,21,17.25Z"/></g></g></svg>