<svg xmlns="http://www.w3.org/2000/svg" viewBox="0 0 150 150"><g id="Layer_2" data-name="Layer 2"><g id="Layer_1-2" data-name="Layer 1"><path d="M115.67,68.7l-3.06-4.85L137.69,48.1l-21.25-.35a2.91,2.91,0,0,1-2.91-2.9,2.87,2.87,0,0,1,.41-1.48L121,32l-12.87,3.77a2.84,2.84,0,0,1-2.51-.52,2.93,2.93,0,0,1-1-2.5l1.73-19.38-11,15.93a2.85,2.85,0,0,1-2.18,1.22,2.93,2.93,0,0,1-2.33-.95L80.48,18V54.42H74.66V10.5a2.88,2.88,0,0,1,1.83-2.68,2.83,2.83,0,0,1,3.16.78L92.52,23.05l15-21.83a2.86,2.86,0,0,1,5.19,1.9l-2.28,26,15.92-4.68a2.88,2.88,0,0,1,3.26,4.25L121.49,42.1l25.7.42a2.88,2.88,0,0,1,2.71,2.1,2.91,2.91,0,0,1-1.23,3.2Z"/><path d="M113.71,135H67.49v-5.75h46.22a7.74,7.74,0,0,0,7.7-7.73v-10.2a16.78,16.78,0,0,0-5-12,22.61,22.61,0,0,1-5.56-8.55L104.91,74.8a14.12,14.12,0,0,0-13.25-9.3H67.49V59.77H91.74a19.85,19.85,0,0,1,18.63,13.1l5.75,15.9a17.09,17.09,0,0,0,4.14,6.38,22.49,22.49,0,0,1,6.87,16.17v10.2A13.45,13.45,0,0,1,113.71,135Z"/><path d="M67.49,135H21.27A13.47,13.47,0,0,1,7.82,121.55V111.32a22.46,22.46,0,0,1,6.8-16.17,17.21,17.21,0,0,0,4.14-6.38l5.89-15.9a19.87,19.87,0,0,1,18.64-13.1H67.54V65.5H43.24A14.12,14.12,0,0,0,30,74.8L24.22,90.72a22.14,22.14,0,0,1-5.54,8.55,16.77,16.77,0,0,0-5,12v10.2a7.74,7.74,0,0,0,7.7,7.73H67.49Z"/><path d="M67.49,95.9H8.7a9.15,9.15,0,0,1,0-18.28h4.16a10,10,0,0,1,10,10v2.5H67.54ZM8.7,83.4a3.42,3.42,0,0,0,0,6.82h8.43v-2.5a4.28,4.28,0,0,0-4.27-4.27Z"/><path d="M126.28,95.9H67.49V90.17h44.62v-2.5a10,10,0,0,1,10-10h4.16a9.15,9.15,0,0,1,0,18.28Zm-8.43-5.73h8.43a3.42,3.42,0,0,0,0-6.82h-4.17a4.27,4.27,0,0,0-4.26,4.27Z"/><rect x="48.83" y="117.02" width="36.24" height="5.73"/><path d="M32.9,150H27.74a7.52,7.52,0,0,1-7.53-7.5v-9.83a2.88,2.88,0,0,1,2.86-2.87H37.52a2.88,2.88,0,0,1,2.86,2.87v9.83A7.52,7.52,0,0,1,32.9,150ZM26,135.52v7a1.78,1.78,0,0,0,1.79,1.77H32.9a1.77,1.77,0,0,0,1.78-1.77v-7Z"/><path d="M107.24,150h-5.17a7.51,7.51,0,0,1-7.52-7.5v-9.83a2.9,2.9,0,0,1,2.83-2.87h14.45a2.88,2.88,0,0,1,2.86,2.87v9.83A7.51,7.51,0,0,1,107.24,150Zm-6.95-14.48v7a1.78,1.78,0,0,0,1.78,1.77h5.17A1.78,1.78,0,0,0,109,142.5v-7Z"/><path d="M42.58,121.62H30.8c-4.54,0-9.84-3.1-9.84-11.77v-4.68a3.14,3.14,0,0,1,0-.75A5.43,5.43,0,0,1,25.3,100c6-1,14.88,10.27,19.62,17.12a2.85,2.85,0,0,1-2.34,4.5Zm-15.9-15.85v4.08c0,2.25.53,6,4.12,6h6.09C32.8,110.72,28.61,106.52,26.68,105.77Z"/><path d="M104.18,121.62H92.37A2.88,2.88,0,0,1,89.86,120a2.81,2.81,0,0,1,.2-3c4.82-6.78,13.62-18.1,19.61-17a5.41,5.41,0,0,1,4.24,4.42,2.36,2.36,0,0,1,0,.75v4.68C114,118.52,108.72,121.62,104.18,121.62Zm-6.09-5.75h6.09c3.56,0,4.11-3.77,4.11-6v-4.08C106.34,106.52,102.17,110.72,98.09,115.87Z"/></g></g></svg>