<svg xmlns="http://www.w3.org/2000/svg" viewBox="0 0 150 139.88"><g id="Layer_2" data-name="Layer 2"><g id="Layer_1-2" data-name="Layer 1"><path d="M76.7,21.63a2.51,2.51,0,0,0-3.47,0l-57.45,55A2.44,2.44,0,0,0,15,78.41v51.48a10,10,0,0,0,10,10H55a5,5,0,0,0,5-5V92.42a2.45,2.45,0,0,1,.72-1.77,2.61,2.61,0,0,1,1.77-.73h25a2.48,2.48,0,0,1,2.5,2.5v42.47a5,5,0,0,0,5,5h30a10,10,0,0,0,10-10V78.36a2.66,2.66,0,0,0-.2-1,3.09,3.09,0,0,0-.57-.82Z"/><path d="M148.29,66.24,124.93,43.76V10a5,5,0,0,0-5-5h-15a5,5,0,0,0-5,5V20L81.85,2.7A10.22,10.22,0,0,0,68,2.7L1.64,66.24a5,5,0,0,0,6.62,7.48l.2-.18,64.77-61.9a2.48,2.48,0,0,1,3.45,0l64.79,61.9a5,5,0,0,0,7.07,0h0a5,5,0,0,0,0-7.07C148.46,66.39,148.37,66.32,148.29,66.24Z"/></g></g></svg>