<svg xmlns="http://www.w3.org/2000/svg" viewBox="0 0 150 139.88"><g id="Layer_2" data-name="Layer 2"><g id="Layer_1-2" data-name="Layer 1"><path d="M129.47,71.44l-48.67-40a8.89,8.89,0,0,0-11.65,0l-48.64,40a10.76,10.76,0,0,0-3.68,8.07v55.64a4.65,4.65,0,0,0,4.55,4.75H128.49a4.65,4.65,0,0,0,4.63-4.65V79.47A10.65,10.65,0,0,0,129.47,71.44Zm-57.77,16a4.26,4.26,0,0,1-4.22,4.17H54a4.28,4.28,0,0,1-4.28-4.17V73.82A4.29,4.29,0,0,1,54,69.54H67.48a4.29,4.29,0,0,1,4.25,4.28Zm27.8,0a4.27,4.27,0,0,1-4.25,4.27H81.75a4.28,4.28,0,0,1-4.28-4.27h0V73.82a4.29,4.29,0,0,1,4.25-4.28h13.5a4.29,4.29,0,0,1,4.25,4.28Z"/><path d="M147.61,58.14,79.07,1.43a6.57,6.57,0,0,0-8.19,0L45.7,22.25a1.78,1.78,0,0,1-2.5-.2,1.76,1.76,0,0,1-.42-1.18V10.5a4.64,4.64,0,0,0-4.65-4.62H25.81a4.62,4.62,0,0,0-4.63,4.62v30a4.31,4.31,0,0,1-1.55,3.3L2.34,58.14a6.29,6.29,0,0,0-1.4,8.2A6.17,6.17,0,0,0,9.47,68.2c.2-.13.4-.28.59-.43L70,18.23a7.91,7.91,0,0,1,10,0l60,49.54a6.16,6.16,0,0,0,8.69-.84,5.26,5.26,0,0,0,.43-.59A6.3,6.3,0,0,0,147.61,58.14Z"/></g></g></svg>