<svg xmlns="http://www.w3.org/2000/svg" viewBox="0 0 150 149.55"><g id="Layer_2" data-name="Layer 2"><g id="Layer_1-2" data-name="Layer 1"><rect x="76.22" y="71.06" width="14.19" height="5.56"/><path d="M90.44,135.91H50.38a11.93,11.93,0,0,1-12-11.82v-8.71a19.54,19.54,0,0,1,6.07-14.06A14,14,0,0,0,48,96l5-13.59,5.31,1.89-5,13.6a19.41,19.41,0,0,1-5,7.48,14,14,0,0,0-4.34,10v8.71a6.27,6.27,0,0,0,6.33,6.23H90.44Z"/><path d="M130.49,135.91H90.44v-5.59h40.05a6.29,6.29,0,0,0,6.34-6.23h0v-8.71a13.91,13.91,0,0,0-4.34-10,19.43,19.43,0,0,1-5-7.48l-5-13.6a11.88,11.88,0,0,0-11.15-7.7H90.44V71.06h21a17.46,17.46,0,0,1,16.46,11.38l5,13.59a14.33,14.33,0,0,0,3.49,5.29,19.45,19.45,0,0,1,6.09,14.06v8.71A11.92,11.92,0,0,1,130.49,135.91Z"/><path d="M90.44,102.56h-51a8.15,8.15,0,0,1-.9-16.28,6.76,6.76,0,0,1,.9,0h3.59a9,9,0,0,1,9,8.88V97H90.44Zm-51-10.72a2.57,2.57,0,1,0,0,5.14h7V95.16a3.37,3.37,0,0,0-3.37-3.32Z"/><path d="M141.39,102.56H90.44V97h38.33V95.16a9,9,0,0,1,9-8.88h3.61a8.15,8.15,0,1,1,.9,16.28A6.76,6.76,0,0,1,141.39,102.56Zm-7-5.58h7a2.57,2.57,0,1,0,0-5.14h-3.61a3.35,3.35,0,0,0-3.35,3.32Z"/><rect x="74.25" y="119.9" width="31.4" height="5.56"/><path d="M60.46,148.71H56A6.82,6.82,0,0,1,49.11,142v-8.38A2.81,2.81,0,0,1,52,130.8H64.42a2.81,2.81,0,0,1,2.92,2.71v8.56A6.81,6.81,0,0,1,60.46,148.71Zm-5.59-12.32v5.68a1.2,1.2,0,0,0,1.2,1.17h4.49a1.2,1.2,0,0,0,1.2-1.17v-5.59Z"/><path d="M124.88,148.71h-4.46a6.82,6.82,0,0,1-6.86-6.74v-8.38a2.81,2.81,0,0,1,2.82-2.79h12.47a2.82,2.82,0,0,1,2.82,2.79v8.48A6.83,6.83,0,0,1,124.88,148.71Zm-5.66-12.32v5.68a1.17,1.17,0,0,0,1.17,1.17h4.49a1.17,1.17,0,0,0,1.2-1.14v-5.62Z"/><path d="M68.84,124.61H58.61c-4.41,0-8.73-3.31-8.73-10.5v-4a2.06,2.06,0,0,1,0-.7,5,5,0,0,1,3.94-4c2.32-.4,7.64,1,17.46,14.74a2.73,2.73,0,0,1,.18,2.87A2.78,2.78,0,0,1,68.84,124.61ZM55.42,111.32v2.92c0,2.19.55,4.81,3.19,4.81H63.2a38.38,38.38,0,0,0-7.78-7.86Z"/><path d="M122.21,124.61H112a2.85,2.85,0,0,1-2.5-1.49,2.79,2.79,0,0,1,.2-3c9.7-13.76,15-15.14,17.46-14.74a5,5,0,0,1,4,4,4.09,4.09,0,0,1,0,.7v4C131.12,121.3,126.65,124.61,122.21,124.61Zm-4.56-5.56h4.56c2.67,0,3.22-2.49,3.22-4.81v-3a37.7,37.7,0,0,0-7.76,7.74Z"/><polygon points="5.56 94.63 1.5 90.79 54.5 36.45 58.59 40.31 5.56 94.63"/><polygon points="53.3 66.03 32.55 64.33 33.02 58.79 53.77 60.46 53.3 66.03"/><polygon points="39.46 53.51 34.97 36.54 40.43 35.15 44.94 52.11 39.46 53.51"/><path d="M60,86.8a14.31,14.31,0,0,1-2.07-.15,22.12,22.12,0,0,1-13.15-7.48,21.56,21.56,0,0,1-21.94-4.56c-8.36-7.79-7.74-19.21-7-24C12.42,48.72,5.66,44,3.57,36.3c-1.65-6.12,0-12.48,5-19.28A21.93,21.93,0,0,1,32.3,8.51C34.42,5,39.78-.74,52.25.08A21.21,21.21,0,0,1,71.73,15a24.55,24.55,0,0,1,15.32,3.37A20.33,20.33,0,0,1,95.63,32.6c2.17,12.47-7.24,19.11-14.74,21.65,2.49,5.37,5.16,16.12-7.69,27.14A20,20,0,0,1,60,86.8ZM45.69,73A2.77,2.77,0,0,1,48,74.18s4.41,6.19,10.65,7a13.56,13.56,0,0,0,10.57-3.92c13.6-11.67,5.81-21.77,5-22.89a2.74,2.74,0,0,1-.47-2.72,2.8,2.8,0,0,1,2-1.82c.65,0,16.29-3.19,14-16.24a15.14,15.14,0,0,0-6.14-10.5,20.26,20.26,0,0,0-13.86-2.17,3,3,0,0,1-2.22-.45,2.76,2.76,0,0,1-1.18-1.87,15.8,15.8,0,0,0-15-13c-12.7-.82-15.17,6.74-15.27,7.06a2.87,2.87,0,0,1-3.59,1.89l-.25-.09a16.49,16.49,0,0,0-19.53,5.76C9,25.42,7.66,30.31,8.85,34.72,11.07,42.31,20,46.5,20.15,46.55a2.74,2.74,0,0,1,1.57,3.24s-3.14,13.14,5,20.72a16.34,16.34,0,0,0,17.74,2.77A2.82,2.82,0,0,1,45.69,73Z"/><rect y="97.58" width="5.66" height="51.98"/></g></g></svg>